<svg id="Livello_1" data-name="Livello 1" xmlns="http://www.w3.org/2000/svg" viewBox="0 0 841.89 595.28">
  <defs>
    <style>
      .cls-1 {
        fill: #fff;
        stroke: #222221;
        stroke-miterlimit: 10;
      }

      .cls-2 {
        fill: #1b79ab;
      }
    </style>
  </defs>
  <title>Card</title>
  <g>
    <path class="cls-1" d="M704.54,495.76H137.35c-15.29,0-27.79-14-27.79-31.15V123.94c0-17.13,12.51-31.15,27.79-31.15H704.54c15.29,0,27.79,14,27.79,31.15v75.88s-25.2,34.78-25.2,85.4,25.2,79.17,25.2,79.17V464.61C732.33,481.75,719.83,495.76,704.54,495.76Z"/>
    <g>
      <path d="M148.74,406.39h38.8v9.34H160.19v15.92h23.2V441h-23.2v18.4h28.33v9.34H148.74Z"/>
      <path d="M212,415.73H193.36v-9.34H242v9.34H223.47v53H212Z"/>
      <path d="M250.13,406.39h11.45v62.35H250.13Z"/>
      <path class="cls-2" d="M330.89,483.32A27.7,27.7,0,0,1,320.52,485c-12.83,0-21.72-6.48-25.87-15.63-13.92-2.38-23.1-14.11-23.1-32.13,0-20.12,11.65-32,28.43-32s28.53,11.92,28.53,32c0,17.35-8.59,29-21.72,31.84,3,5,8.79,7,15,7a23.44,23.44,0,0,0,7-1ZM300,460.25c10.17,0,16.68-9,16.68-23s-6.52-22.4-16.68-22.4-16.68,8.49-16.68,22.4S289.82,460.25,300,460.25Z"/>
      <path d="M367.91,451.86H346.29l-5,16.87H329.5l21.13-62.35h13.43l21,62.35H372.94Zm-2.57-8.68-2.27-7.63c-2-6.58-3.95-13.73-5.82-20.59h-.4c-1.78,7-3.65,14-5.73,20.59l-2.27,7.63Z"/>
      <path d="M435.43,405.24a26.64,26.64,0,0,1,19.25,7.91L448.37,420a17.14,17.14,0,0,0-12.83-5.15c-11.45,0-19.15,8.58-19.15,22.59,0,14.21,6.91,22.79,19.84,22.79,3.55,0,7.11-1,9.18-2.77V444H433.26V435h22.41v27.46c-4.44,4-12,7.44-20.83,7.44-17.18,0-30.21-11.44-30.21-32.13C404.63,417.35,418.06,405.24,435.43,405.24Z"/>
      <path class="cls-2" d="M502.37,468.74l-13.92-24.41h-9.77v24.41H467.22V406.39h21.72c13.43,0,23.79,4.58,23.79,18.5,0,9.53-5.13,15.25-12.93,17.83l15.4,26Zm-23.69-33.18h9.08c8.89,0,13.62-3.62,13.62-10.68s-4.74-9.63-13.62-9.63h-9.08Z"/>
      <path d="M520.14,437.28c0-20.12,11.65-32,28.53-32s28.43,11.92,28.43,32-11.65,32.61-28.43,32.61S520.14,457.49,520.14,437.28Zm45.22,0c0-13.92-6.61-22.4-16.68-22.4s-16.78,8.49-16.78,22.4,6.61,23,16.78,23S565.35,451.29,565.35,437.28Z"/>
      <path d="M587,406.39h11.45v35.85c0,13.54,5.33,18,13.13,18s13.33-4.48,13.33-18V406.39h11.06v35c0,20.5-9.48,28.51-24.38,28.51s-24.58-8-24.58-28.51Z"/>
      <path d="M649.27,406.39H671c14.12,0,24.48,4.77,24.48,19.26,0,13.82-10.66,20.21-24.48,20.21H660.72v22.88H649.27ZM670,437c9.68,0,14.22-3.72,14.22-11.34,0-7.82-4.84-10.39-14.22-10.39h-9.28V437Z"/>
    </g>
  </g>
</svg>
