<svg id="Livello_1" data-name="Livello 1" xmlns="http://www.w3.org/2000/svg" viewBox="0 0 841.89 595.28">
  <defs>
    <style>
      .cls-1 {
        fill: #1b79ab;
      }
    </style>
  </defs>
  <title>Etica Group</title>
  <g>
    <g>
      <path d="M103.87,229.92h45.5v11H117.3v18.67H144.5v11H117.3v21.58h33.23v11H103.87Z"/>
      <path d="M178.08,240.87H156.19v-11h57.07v11H191.5V303H178.08Z"/>
      <path d="M222.76,229.92h13.43V303H222.76Z"/>
      <path class="cls-1" d="M317.46,320.14a32.47,32.47,0,0,1-12.16,2c-15,0-25.47-7.6-30.33-18.34-16.32-2.79-27.09-16.55-27.09-37.68,0-23.59,13.66-37.56,33.34-37.56s33.46,14,33.46,37.56c0,20.35-10.07,34-25.47,37.34,3.47,5.81,10.3,8.16,17.6,8.16a27.5,27.5,0,0,0,8.22-1.23Zm-36.24-27.06c11.92,0,19.56-10.51,19.56-26.94s-7.64-26.27-19.56-26.27-19.56,10-19.56,26.27S269.3,293.08,281.22,293.08Z"/>
      <path d="M360.87,283.25H335.52L329.61,303H315.84l24.77-73.12h15.74L381,303H366.77Zm-3-10.17-2.66-8.94c-2.32-7.71-4.63-16.1-6.83-24.15h-.46c-2.08,8.16-4.28,16.43-6.71,24.15l-2.66,8.94Z"/>
      <path d="M440.05,228.58a31.24,31.24,0,0,1,22.57,9.28l-7.41,8a20.1,20.1,0,0,0-15-6c-13.43,0-22.46,10.06-22.46,26.5,0,16.66,8.1,26.72,23.27,26.72,4.17,0,8.34-1.12,10.77-3.24V274.08H437.51V263.46h26.28v32.2c-5.21,4.7-14.12,8.72-24.43,8.72-20.14,0-35.43-13.42-35.43-37.68C403.93,242.77,419.68,228.58,440.05,228.58Z"/>
      <path class="cls-1" d="M518.54,303l-16.32-28.62H490.76V303H477.33V229.92H502.8c15.75,0,27.9,5.37,27.9,21.69,0,11.18-6,17.89-15.17,20.91L533.59,303Zm-27.79-38.91h10.65c10.42,0,16-4.25,16-12.52s-5.56-11.29-16-11.29H490.76Z"/>
      <path d="M539.38,266.14c0-23.59,13.66-37.56,33.46-37.56s33.34,14,33.34,37.56-13.66,38.24-33.34,38.24S539.38,289.84,539.38,266.14Zm53,0c0-16.32-7.76-26.27-19.56-26.27s-19.68,10-19.68,26.27,7.76,26.94,19.68,26.94S592.4,282.58,592.4,266.14Z"/>
      <path d="M617.75,229.92h13.43v42c0,15.88,6.25,21.13,15.4,21.13s15.63-5.25,15.63-21.13v-42h13v41c0,24-11.11,33.43-28.59,33.43s-28.83-9.39-28.83-33.43Z"/>
      <path d="M690.8,229.92h25.47c16.55,0,28.71,5.59,28.71,22.58,0,16.21-12.5,23.7-28.71,23.7h-12V303H690.8Zm24.31,35.89c11.34,0,16.67-4.36,16.67-13.3,0-9.17-5.67-12.19-16.67-12.19H704.23v25.49Z"/>
    </g>
    <g>
      <path d="M101.73,341.53h10c6,0,10.71,2.18,10.71,8.82,0,6.43-4.92,9.28-10.71,9.28H108v9.28h-6.22Zm9.62,13.19c3.4,0,5-1.51,5-4.37s-1.76-3.91-5-3.91H108v8.28Z"/>
      <path d="M126.68,348.08h5l.42,3.66h.17c1.51-2.81,3.78-4.16,5.92-4.16a6,6,0,0,1,2.48.42l-1,5.33a7.79,7.79,0,0,0-2.27-.34c-1.55,0-3.49,1-4.58,3.82v12.1h-6.18Z"/>
      <path d="M151.93,347.57c5.25,0,10.12,4,10.12,10.92s-4.87,10.92-10.12,10.92-10.17-4-10.17-10.92S146.63,347.57,151.93,347.57Zm0,16.84c2.52,0,3.82-2.31,3.82-5.92s-1.3-5.92-3.82-5.92-3.82,2.31-3.82,5.92S149.36,364.42,151.93,364.42Z"/>
      <path d="M177.84,344.26a6.68,6.68,0,0,0-2.14-.42c-1.51,0-2.39.84-2.39,3v1.26H177v4.83H173.3v16h-6.17v-16h-2.77v-4.58l2.77-.21V347c0-4.41,2.06-8,7.69-8a12.47,12.47,0,0,1,4.16.76Z"/>
      <path d="M188.59,347.57c5.92,0,8.86,4.33,8.86,10a12.24,12.24,0,0,1-.25,2.6H184.73a5,5,0,0,0,5.42,4.54,8.39,8.39,0,0,0,4.49-1.39l2.06,3.74a13.63,13.63,0,0,1-7.39,2.35c-6,0-10.54-4-10.54-10.92S183.59,347.57,188.59,347.57Zm3.61,8.78c0-2.39-1-4.08-3.49-4.08-1.93,0-3.61,1.3-4,4.08Z"/>
      <path d="M202.66,362.66a9,9,0,0,0,5.38,2.18c1.85,0,2.65-.67,2.65-1.76,0-1.39-2.1-2-4.24-2.86-2.52-1-5.5-2.69-5.5-6.13,0-3.87,3.15-6.51,8-6.51a12,12,0,0,1,7.35,2.65l-2.77,3.7a7.68,7.68,0,0,0-4.41-1.76c-1.6,0-2.35.59-2.35,1.64,0,1.34,1.93,1.85,4.07,2.65,2.65,1,5.63,2.44,5.63,6.26s-3,6.72-8.57,6.72a13.45,13.45,0,0,1-8-2.9Z"/>
      <path d="M221.27,362.66a9,9,0,0,0,5.38,2.18c1.85,0,2.65-.67,2.65-1.76,0-1.39-2.1-2-4.24-2.86-2.52-1-5.5-2.69-5.5-6.13,0-3.87,3.15-6.51,8-6.51a12,12,0,0,1,7.35,2.65l-2.77,3.7a7.68,7.68,0,0,0-4.41-1.76c-1.6,0-2.35.59-2.35,1.64,0,1.34,1.93,1.85,4.07,2.65,2.65,1,5.63,2.44,5.63,6.26s-3,6.72-8.57,6.72a13.45,13.45,0,0,1-8-2.9Z"/>
      <path d="M238.44,341.78a3.27,3.27,0,0,1,3.57-3.19c2.1,0,3.57,1.3,3.57,3.19a3.59,3.59,0,0,1-7.14,0Zm.5,6.3h6.18v20.84h-6.18Z"/>
      <path d="M259.49,347.57c5.25,0,10.12,4,10.12,10.92s-4.87,10.92-10.12,10.92-10.17-4-10.17-10.92S254.19,347.57,259.49,347.57Zm0,16.84c2.52,0,3.82-2.31,3.82-5.92s-1.3-5.92-3.82-5.92-3.82,2.31-3.82,5.92S256.92,364.42,259.49,364.42Z"/>
      <path d="M273.85,348.08h5l.42,2.65h.17c1.76-1.68,3.86-3.15,6.68-3.15,4.54,0,6.47,3.19,6.47,8.4v12.94h-6.18V356.77c0-3-.8-3.95-2.56-3.95-1.55,0-2.52.71-3.86,2v14.07h-6.18Z"/>
      <path d="M297.37,341.78a3.27,3.27,0,0,1,3.57-3.19c2.1,0,3.57,1.3,3.57,3.19a3.59,3.59,0,0,1-7.14,0Zm.5,6.3H304v20.84h-6.18Z"/>
      <path d="M310.39,362.66a9,9,0,0,0,5.38,2.18c1.85,0,2.65-.67,2.65-1.76,0-1.39-2.1-2-4.24-2.86-2.52-1-5.5-2.69-5.5-6.13,0-3.87,3.15-6.51,8-6.51a12,12,0,0,1,7.35,2.65l-2.77,3.7a7.68,7.68,0,0,0-4.41-1.76c-1.6,0-2.35.59-2.35,1.64,0,1.34,1.93,1.85,4.07,2.65,2.65,1,5.63,2.44,5.63,6.26s-3,6.72-8.57,6.72a13.45,13.45,0,0,1-8-2.9Z"/>
      <path d="M328.91,352.91h-2.86v-4.58l3.19-.25.71-5.54h5.13v5.54h5v4.83h-5v8.36c0,2.35,1.05,3.32,2.69,3.32a5.9,5.9,0,0,0,2-.42l1,4.5a15,15,0,0,1-4.62.76c-5.17,0-7.18-3.23-7.18-8.07Z"/>
      <path d="M343.65,341.78a3.27,3.27,0,0,1,3.57-3.19c2.1,0,3.57,1.3,3.57,3.19a3.59,3.59,0,0,1-7.14,0Zm.5,6.3h6.18v20.84h-6.18Z"/>
      <path d="M372,347.57a6.83,6.83,0,0,1,5.12,2.18l-.25-3.19v-7.1h6.18v29.45h-5l-.42-2.06h-.17a8.24,8.24,0,0,1-5.54,2.56c-5.17,0-8.53-4.12-8.53-10.92S367.63,347.57,372,347.57Zm1.47,16.8a3.91,3.91,0,0,0,3.4-1.89V354a4.93,4.93,0,0,0-3.44-1.34c-2,0-3.74,1.85-3.74,5.8C369.73,362.53,371.12,364.38,373.51,364.38Z"/>
      <path d="M397.16,347.57c5.92,0,8.86,4.33,8.86,10a12.24,12.24,0,0,1-.25,2.6H393.29a5,5,0,0,0,5.42,4.54,8.39,8.39,0,0,0,4.49-1.39l2.06,3.74a13.63,13.63,0,0,1-7.39,2.35c-6,0-10.54-4-10.54-10.92S392.16,347.57,397.16,347.57Zm3.61,8.78c0-2.39-1-4.08-3.49-4.08-1.93,0-3.61,1.3-4,4.08Z"/>
      <path d="M410.3,339.47h6.18V362.7c0,1.3.59,1.72,1.09,1.72a2.59,2.59,0,0,0,.76-.08l.76,4.58a8.06,8.06,0,0,1-3.11.5c-4.24,0-5.67-2.77-5.67-7Z"/>
      <path d="M422.32,339.47h6.17V362.7c0,1.3.59,1.72,1.09,1.72a2.59,2.59,0,0,0,.76-.08l.76,4.58a8.05,8.05,0,0,1-3.11.5c-4.24,0-5.67-2.77-5.67-7Z"/>
      <path d="M445.29,355.51a2.9,2.9,0,0,0-3.28-3,11.21,11.21,0,0,0-5.54,1.89l-2.18-4.08a17.23,17.23,0,0,1,8.91-2.73c5.33,0,8.28,3,8.28,9.41v11.93h-5l-.46-2.14h-.13a9.16,9.16,0,0,1-6.09,2.65,6,6,0,0,1-6.17-6.3C433.57,358.75,437.06,356.35,445.29,355.51Zm-3.44,9.12a4.64,4.64,0,0,0,3.44-1.76v-3.65c-4.41.59-5.84,1.85-5.84,3.44C439.45,364,440.38,364.63,441.85,364.63Z"/>
      <path d="M477.71,341a11.51,11.51,0,0,1,8.11,3.57l-3.4,3.82a6.47,6.47,0,0,0-4.62-2.06c-3.82,0-6.81,3.32-6.81,8.82s2.65,8.91,6.64,8.91a6.71,6.71,0,0,0,5.21-2.44l3.4,3.74a11.18,11.18,0,0,1-8.7,4c-7.1,0-12.9-4.83-12.9-14S470.66,341,477.71,341Z"/>
      <path d="M498.8,347.57c5.25,0,10.12,4,10.12,10.92S504,369.42,498.8,369.42s-10.17-4-10.17-10.92S493.5,347.57,498.8,347.57Zm0,16.84c2.52,0,3.82-2.31,3.82-5.92s-1.3-5.92-3.82-5.92S495,354.88,495,358.5,496.23,364.42,498.8,364.42Z"/>
      <path d="M513.16,348.08h5l.42,2.69h.17c1.72-1.72,3.57-3.19,6.3-3.19a5.76,5.76,0,0,1,5.76,3.49c1.85-1.89,3.78-3.49,6.55-3.49,4.5,0,6.51,3.19,6.51,8.4v12.94h-6.17V356.77c0-3-.8-3.95-2.56-3.95-1,0-2.23.67-3.57,2v14.07h-6.17V356.77c0-3-.8-3.95-2.56-3.95-1,0-2.23.67-3.53,2v14.07h-6.17Z"/>
      <path d="M548.94,348.08h6.17v12.14c0,3,.8,3.95,2.6,3.95,1.55,0,2.48-.67,3.7-2.31V348.08h6.17v20.84h-5l-.46-2.9H562c-1.76,2.1-3.7,3.4-6.55,3.4-4.54,0-6.47-3.19-6.47-8.4Z"/>
      <path d="M573,348.08h5l.42,2.65h.17c1.76-1.68,3.87-3.15,6.68-3.15,4.54,0,6.47,3.19,6.47,8.4v12.94h-6.17V356.77c0-3-.8-3.95-2.56-3.95-1.55,0-2.52.71-3.87,2v14.07H573Z"/>
      <path d="M596.53,341.78a3.27,3.27,0,0,1,3.57-3.19c2.1,0,3.57,1.3,3.57,3.19a3.59,3.59,0,0,1-7.14,0Zm.5,6.3h6.17v20.84H597Z"/>
      <path d="M618.24,347.57a8.41,8.41,0,0,1,6.09,2.39l-2.81,3.82a4.46,4.46,0,0,0-2.9-1.22c-3,0-4.87,2.31-4.87,5.92s2,5.92,4.66,5.92a6,6,0,0,0,3.74-1.51l2.48,3.91a10.81,10.81,0,0,1-6.93,2.6c-5.8,0-10.29-4-10.29-10.92A10.47,10.47,0,0,1,618.24,347.57Z"/>
      <path d="M638.78,355.51a2.9,2.9,0,0,0-3.28-3,11.21,11.21,0,0,0-5.54,1.89l-2.18-4.08a17.23,17.23,0,0,1,8.91-2.73c5.33,0,8.28,3,8.28,9.41v11.93h-5l-.46-2.14h-.13a9.16,9.16,0,0,1-6.09,2.65,6,6,0,0,1-6.17-6.3C627.06,358.75,630.55,356.35,638.78,355.51Zm-3.44,9.12a4.64,4.64,0,0,0,3.44-1.76v-3.65c-4.41.59-5.84,1.85-5.84,3.44C632.94,364,633.87,364.63,635.34,364.63Z"/>
      <path d="M649.11,365.6l8.74-12.69h-7.77v-4.83h15.46v3.28l-8.74,12.73h9v4.83H649.11Z"/>
      <path d="M669.06,341.78a3.27,3.27,0,0,1,3.57-3.19c2.1,0,3.57,1.3,3.57,3.19a3.59,3.59,0,0,1-7.14,0Zm.5,6.3h6.17v20.84h-6.17Z"/>
      <path d="M690.1,347.57c5.25,0,10.12,4,10.12,10.92s-4.87,10.92-10.12,10.92-10.17-4-10.17-10.92S684.81,347.57,690.1,347.57Zm0,16.84c2.52,0,3.82-2.31,3.82-5.92s-1.3-5.92-3.82-5.92-3.82,2.31-3.82,5.92S687.54,364.42,690.1,364.42Z"/>
      <path d="M704.47,348.08h5l.42,2.65h.17c1.76-1.68,3.87-3.15,6.68-3.15,4.54,0,6.47,3.19,6.47,8.4v12.94h-6.17V356.77c0-3-.8-3.95-2.56-3.95-1.55,0-2.52.71-3.87,2v14.07h-6.17Z"/>
      <path d="M737.1,347.57c5.92,0,8.86,4.33,8.86,10a12.22,12.22,0,0,1-.25,2.6H733.24a5,5,0,0,0,5.42,4.54,8.39,8.39,0,0,0,4.49-1.39l2.06,3.74a13.63,13.63,0,0,1-7.39,2.35c-6,0-10.54-4-10.54-10.92S732.1,347.57,737.1,347.57Zm3.61,8.78c0-2.39-1-4.08-3.49-4.08-1.93,0-3.61,1.3-4,4.08Z"/>
    </g>
  </g>
</svg>
