<svg id="Livello_1" data-name="Livello 1" xmlns="http://www.w3.org/2000/svg" viewBox="0 0 841.89 595.28">
  <defs>
    <style>
      .cls-1 {
        fill: #1b79ab;
        stroke: #222221;
        stroke-miterlimit: 10;
      }

      .cls-2 {
        fill: #19668e;
      }

      .cls-3 {
        fill: #fff;
      }
    </style>
  </defs>
  <title>Etiqard</title>
  <g>
    <path class="cls-1" d="M719,521.46h-596c-16.06,0-29.21-14.73-29.21-32.73v-358c0-18,13.14-32.73,29.21-32.73H719c16.06,0,29.21,14.73,29.21,32.73v79.74S721.69,247,721.69,300.2s26.48,83.19,26.48,83.19V488.72C748.17,506.73,735,521.46,719,521.46Z"/>
    <g>
      <path d="M132.3,501.34l-.73-74.12,17.85-.17.51,52.24,30.42-.3-.44-44.32,17.85-.17.44,44.32,35.16-.35-.53-54.13,17.85-.18.75,76Z"/>
      <path d="M149,380.28l.35,35.65-17.85.17-.91-93,17.85-.17.35,35.46,101.28-1,.22,21.88Z"/>
      <path d="M130.4,307.65l-.22-21.88,119.13-1.17.22,21.88Z"/>
    </g>
    <g>
      <path class="cls-2" d="M708.29,129.74l.73,74.12-17.85.18-.51-52.24-30.42.3.44,44.32-17.85.18-.44-44.32-35.16.35.53,54.13-17.85.18-.75-76Z"/>
      <path class="cls-2" d="M691.63,250.81l-.35-35.65,17.85-.18.91,93-17.85.18-.35-35.46-101.28,1-.22-21.88Z"/>
      <path class="cls-2" d="M710.2,323.43l.21,21.88-119.13,1.17-.21-21.88Z"/>
    </g>
    <g>
      <path class="cls-3" d="M248.86,264.51c-4.15,1.82-11.32,3.28-19.8,3.28-24.52,0-41.5-12.39-49.42-29.87-26.59-4.55-44.14-27-44.14-61.39,0-38.44,22.26-61.21,54.32-61.21,32.25,0,54.51,22.77,54.51,61.21,0,33.15-16.41,55.38-41.5,60.84,5.66,9.47,16.79,13.3,28.67,13.3a44.8,44.8,0,0,0,13.39-2Zm-59-44.08c19.43,0,31.88-17.12,31.88-43.9,0-26.6-12.45-42.81-31.88-42.81S158,149.93,158,176.53C158,203.31,170.4,220.43,189.83,220.43Z"/>
      <path d="M319.59,204.4H278.29l-9.62,32.24H246.22l40.36-119.13h25.65l40.17,119.13h-23.2Zm-4.9-16.58-4.34-14.57c-3.77-12.57-7.54-26.23-11.13-39.35h-.75c-3.4,13.3-7,26.78-10.94,39.35l-4.34,14.57Z"/>
      <path class="cls-3" d="M429.55,236.64,403,190H384.29v46.63H362.41V117.51h41.5c25.65,0,45.46,8.74,45.46,35.34,0,18.22-9.81,29.15-24.71,34.06l29.42,49.73Zm-45.27-63.39h17.35c17,0,26-6.92,26-20.4,0-13.66-9.05-18.4-26-18.4H384.29Z"/>
      <path d="M470.1,117.51h32.82c37.72,0,60.17,19.67,60.17,59,0,39.53-22.45,60.11-59,60.11h-34Zm31.31,102c24.9,0,39.23-13.66,39.23-43,0-29.15-14.33-41.9-39.23-41.9H492v84.89Z"/>
      <path class="cls-3" d="M571.06,147.67c0-14.81,11.31-25.11,25.08-25.11s25.08,10.29,25.08,25.11-11.18,25-25.08,25S571.06,162.35,571.06,147.67Zm44.06,0c0-11.8-8.06-19.83-19-19.83s-19,8-19,19.83,8.06,19.58,19,19.58S615.13,159.34,615.13,147.67Zm-29-12.8h10.79c5.72,0,10.4,2.26,10.4,8.16a7.4,7.4,0,0,1-4.81,6.9l5.72,9.92h-6.89l-4.29-8.16h-4.42v8.16h-6.5Zm9.49,12.3c3,0,4.81-1.51,4.81-3.77s-1.43-3.77-4.68-3.77h-3.12v7.53Z"/>
    </g>
    <g>
      <path class="cls-2" d="M588.37,355.22c4.15-1.82,11.32-3.28,19.8-3.28,24.52,0,41.5,12.39,49.42,29.87,26.59,4.55,44.14,27,44.14,61.39,0,38.44-22.26,61.21-54.32,61.21-32.25,0-54.51-22.77-54.51-61.21,0-33.15,16.41-55.38,41.49-60.84-5.66-9.47-16.79-13.3-28.67-13.3a44.8,44.8,0,0,0-13.39,2Zm59,44.08c-19.43,0-31.88,17.12-31.88,43.9,0,26.6,12.45,42.81,31.88,42.81s31.88-16.21,31.88-42.81C679.28,416.43,666.84,399.3,647.41,399.3Z"/>
      <path class="cls-2" d="M517.64,415.33h41.31l9.62-32.24H591L550.65,502.22H525L484.82,383.09H508Zm4.9,16.58,4.34,14.57c3.77,12.57,7.54,26.23,11.13,39.35h.75c3.39-13.3,7-26.78,10.94-39.35L554,431.91Z"/>
      <path class="cls-2" d="M407.68,383.09l26.59,46.63h18.67V383.09h21.88V502.22H433.33c-25.65,0-45.46-8.74-45.46-35.34,0-18.22,9.81-29.15,24.71-34.06l-29.42-49.73Zm45.27,63.39H435.6c-17,0-26,6.92-26,20.4,0,13.66,9.05,18.4,26,18.4h17.35Z"/>
      <path class="cls-2" d="M367.13,502.22H334.31c-37.72,0-60.17-19.67-60.17-59,0-39.53,22.45-60.11,59-60.11h34Zm-31.31-102c-24.9,0-39.23,13.66-39.23,43,0,29.15,14.33,41.9,39.23,41.9h9.43V400.21Z"/>
    </g>
  </g>
</svg>
